<?xml version="1.0" encoding="UTF-8" standalone="no"?>
<!DOCTYPE svg PUBLIC "-//W3C//DTD SVG 1.1//EN"
 "http://www.w3.org/Graphics/SVG/1.1/DTD/svg11.dtd">
<!-- Generated by graphviz version 2.47.0 (20210316.0004)
 -->
<!-- Title: dependencies Pages: 1 -->
<svg width="4531pt" height="284pt"
 viewBox="0.00 0.00 4531.00 284.00" xmlns="http://www.w3.org/2000/svg" xmlns:xlink="http://www.w3.org/1999/xlink">
<g id="graph0" class="graph" transform="scale(1 1) rotate(0) translate(4 280)">
<title>dependencies</title>
<polygon fill="white" stroke="transparent" points="-4,4 -4,-280 4527,-280 4527,4 -4,4"/>
<text text-anchor="start" x="2240.51" y="-42.4" font-family="sans-serif" font-weight="bold" font-size="14.00">Legend</text>
<polygon fill="#ffffb3" stroke="transparent" points="2027.5,-10 2027.5,-30 2047.5,-30 2047.5,-10 2027.5,-10"/>
<text text-anchor="start" x="2051.13" y="-15.4" font-family="sans-serif" font-size="14.00"> &#160;Declarations</text>
<polygon fill="#8dd3c7" stroke="transparent" points="2140.5,-10 2140.5,-30 2160.5,-30 2160.5,-10 2140.5,-10"/>
<text text-anchor="start" x="2164.23" y="-15.4" font-family="sans-serif" font-size="14.00"> &#160;Module</text>
<polygon fill="#80b1d3" stroke="transparent" points="2226.5,-10 2226.5,-30 2246.5,-30 2246.5,-10 2226.5,-10"/>
<text text-anchor="start" x="2250.28" y="-15.4" font-family="sans-serif" font-size="14.00"> &#160;Bootstrap</text>
<polygon fill="#fdb462" stroke="transparent" points="2323.5,-10 2323.5,-30 2343.5,-30 2343.5,-10 2323.5,-10"/>
<text text-anchor="start" x="2347.17" y="-15.4" font-family="sans-serif" font-size="14.00"> &#160;Providers</text>
<polygon fill="#fb8072" stroke="transparent" points="2419.5,-10 2419.5,-30 2439.5,-30 2439.5,-10 2419.5,-10"/>
<text text-anchor="start" x="2443.23" y="-15.4" font-family="sans-serif" font-size="14.00"> &#160;Exports</text>
<g id="clust1" class="cluster">
<title>cluster_AppModule</title>
<polygon fill="none" stroke="black" stroke-dasharray="1,5" points="8,-70 8,-268 4515,-268 4515,-70 8,-70"/>
</g>
<g id="clust2" class="cluster">
<title>cluster_AppModule_declarations</title>
<polygon fill="none" stroke="black" points="474,-78 474,-130 4507,-130 4507,-78 474,-78"/>
</g>
<g id="clust29" class="cluster">
<title>cluster_AppModule_bootstrap</title>
<polygon fill="none" stroke="black" points="2250,-208 2250,-260 2374,-260 2374,-208 2250,-208"/>
</g>
<g id="clust27" class="cluster">
<title>cluster_AppModule_imports</title>
<polygon fill="none" stroke="black" points="322,-78 322,-130 466,-130 466,-78 322,-78"/>
</g>
<g id="clust30" class="cluster">
<title>cluster_AppModule_providers</title>
<polygon fill="none" stroke="black" points="16,-78 16,-130 314,-130 314,-78 16,-78"/>
</g>
<!-- AboutUsComponent -->
<g id="node1" class="node">
<title>AboutUsComponent</title>
<polygon fill="#ffffb3" stroke="black" points="4498.88,-122 4367.12,-122 4367.12,-86 4498.88,-86 4498.88,-122"/>
<text text-anchor="middle" x="4433" y="-99.8" font-family="Times,serif" font-size="14.00">AboutUsComponent</text>
</g>
<!-- AppModule -->
<g id="node25" class="node">
<title>AppModule</title>
<polygon fill="#8dd3c7" stroke="black" points="2353.66,-187 2350.66,-191 2329.66,-191 2326.66,-187 2270.34,-187 2270.34,-151 2353.66,-151 2353.66,-187"/>
<text text-anchor="middle" x="2312" y="-164.8" font-family="Times,serif" font-size="14.00">AppModule</text>
</g>
<!-- AboutUsComponent&#45;&gt;AppModule -->
<g id="edge1" class="edge">
<title>AboutUsComponent&#45;&gt;AppModule</title>
<path fill="none" stroke="black" d="M4433,-122.38C4433,-146.28 4433,-185 4433,-185 4433,-185 2363.89,-185 2363.89,-185"/>
<polygon fill="black" stroke="black" points="2363.89,-181.5 2353.89,-185 2363.89,-188.5 2363.89,-181.5"/>
</g>
<!-- AppComponent -->
<g id="node2" class="node">
<title>AppComponent</title>
<polygon fill="#ffffb3" stroke="black" points="4348.94,-122 4243.06,-122 4243.06,-86 4348.94,-86 4348.94,-122"/>
<text text-anchor="middle" x="4296" y="-99.8" font-family="Times,serif" font-size="14.00">AppComponent</text>
</g>
<!-- AppComponent&#45;&gt;AppModule -->
<g id="edge2" class="edge">
<title>AppComponent&#45;&gt;AppModule</title>
<path fill="none" stroke="black" d="M4296,-122.09C4296,-145.13 4296,-182 4296,-182 4296,-182 2363.9,-182 2363.9,-182"/>
<polygon fill="black" stroke="black" points="2363.9,-178.5 2353.9,-182 2363.9,-185.5 2363.9,-178.5"/>
</g>
<!-- BewertungComponent -->
<g id="node3" class="node">
<title>BewertungComponent</title>
<polygon fill="#ffffb3" stroke="black" points="4225.26,-122 4082.74,-122 4082.74,-86 4225.26,-86 4225.26,-122"/>
<text text-anchor="middle" x="4154" y="-99.8" font-family="Times,serif" font-size="14.00">BewertungComponent</text>
</g>
<!-- BewertungComponent&#45;&gt;AppModule -->
<g id="edge3" class="edge">
<title>BewertungComponent&#45;&gt;AppModule</title>
<path fill="none" stroke="black" d="M4154,-122.01C4154,-144.49 4154,-180 4154,-180 4154,-180 2363.93,-180 2363.93,-180"/>
<polygon fill="black" stroke="black" points="2363.93,-176.5 2353.93,-180 2363.93,-183.5 2363.93,-176.5"/>
</g>
<!-- BoatDetailsComponent -->
<g id="node4" class="node">
<title>BoatDetailsComponent</title>
<polygon fill="#ffffb3" stroke="black" points="4064.93,-122 3917.07,-122 3917.07,-86 4064.93,-86 4064.93,-122"/>
<text text-anchor="middle" x="3991" y="-99.8" font-family="Times,serif" font-size="14.00">BoatDetailsComponent</text>
</g>
<!-- BoatDetailsComponent&#45;&gt;AppModule -->
<g id="edge4" class="edge">
<title>BoatDetailsComponent&#45;&gt;AppModule</title>
<path fill="none" stroke="black" d="M3991,-122.04C3991,-143.66 3991,-177 3991,-177 3991,-177 2363.92,-177 2363.92,-177"/>
<polygon fill="black" stroke="black" points="2363.92,-173.5 2353.92,-177 2363.92,-180.5 2363.92,-173.5"/>
</g>
<!-- ConfirmDialogComponent -->
<g id="node5" class="node">
<title>ConfirmDialogComponent</title>
<polygon fill="#ffffb3" stroke="black" points="3899.37,-122 3732.63,-122 3732.63,-86 3899.37,-86 3899.37,-122"/>
<text text-anchor="middle" x="3816" y="-99.8" font-family="Times,serif" font-size="14.00">ConfirmDialogComponent</text>
</g>
<!-- ConfirmDialogComponent&#45;&gt;AppModule -->
<g id="edge5" class="edge">
<title>ConfirmDialogComponent&#45;&gt;AppModule</title>
<path fill="none" stroke="black" d="M3816,-122.28C3816,-143.32 3816,-175 3816,-175 3816,-175 2363.8,-175 2363.8,-175"/>
<polygon fill="black" stroke="black" points="2363.8,-171.5 2353.8,-175 2363.8,-178.5 2363.8,-171.5"/>
</g>
<!-- ContactUsComponent -->
<g id="node6" class="node">
<title>ContactUsComponent</title>
<polygon fill="#ffffb3" stroke="black" points="3714.43,-122 3573.57,-122 3573.57,-86 3714.43,-86 3714.43,-122"/>
<text text-anchor="middle" x="3644" y="-99.8" font-family="Times,serif" font-size="14.00">ContactUsComponent</text>
</g>
<!-- ContactUsComponent&#45;&gt;AppModule -->
<g id="edge6" class="edge">
<title>ContactUsComponent&#45;&gt;AppModule</title>
<path fill="none" stroke="black" d="M3644,-122.22C3644,-142.37 3644,-172 3644,-172 3644,-172 2363.69,-172 2363.69,-172"/>
<polygon fill="black" stroke="black" points="2363.69,-168.5 2353.69,-172 2363.69,-175.5 2363.69,-168.5"/>
</g>
<!-- CreateBoatComponent -->
<g id="node7" class="node">
<title>CreateBoatComponent</title>
<polygon fill="#ffffb3" stroke="black" points="3556.31,-122 3411.69,-122 3411.69,-86 3556.31,-86 3556.31,-122"/>
<text text-anchor="middle" x="3484" y="-99.8" font-family="Times,serif" font-size="14.00">CreateBoatComponent</text>
</g>
<!-- CreateBoatComponent&#45;&gt;AppModule -->
<g id="edge7" class="edge">
<title>CreateBoatComponent&#45;&gt;AppModule</title>
<path fill="none" stroke="black" d="M3484,-122.11C3484,-141.34 3484,-169 3484,-169 3484,-169 2363.71,-169 2363.71,-169"/>
<polygon fill="black" stroke="black" points="2363.71,-165.5 2353.71,-169 2363.71,-172.5 2363.71,-165.5"/>
</g>
<!-- CreateFeedbackComponent -->
<g id="node8" class="node">
<title>CreateFeedbackComponent</title>
<polygon fill="#ffffb3" stroke="black" points="3393.51,-122 3222.49,-122 3222.49,-86 3393.51,-86 3393.51,-122"/>
<text text-anchor="middle" x="3308" y="-99.8" font-family="Times,serif" font-size="14.00">CreateFeedbackComponent</text>
</g>
<!-- CreateFeedbackComponent&#45;&gt;AppModule -->
<g id="edge8" class="edge">
<title>CreateFeedbackComponent&#45;&gt;AppModule</title>
<path fill="none" stroke="black" d="M3308,-122.22C3308,-140.83 3308,-167 3308,-167 3308,-167 2363.84,-167 2363.84,-167"/>
<polygon fill="black" stroke="black" points="2363.84,-163.5 2353.84,-167 2363.84,-170.5 2363.84,-163.5"/>
</g>
<!-- DashboardComponent -->
<g id="node9" class="node">
<title>DashboardComponent</title>
<polygon fill="#ffffb3" stroke="black" points="3203.97,-122 3062.03,-122 3062.03,-86 3203.97,-86 3203.97,-122"/>
<text text-anchor="middle" x="3133" y="-99.8" font-family="Times,serif" font-size="14.00">DashboardComponent</text>
</g>
<!-- DashboardComponent&#45;&gt;AppModule -->
<g id="edge9" class="edge">
<title>DashboardComponent&#45;&gt;AppModule</title>
<path fill="none" stroke="black" d="M3133,-122C3133,-139.68 3133,-164 3133,-164 3133,-164 2363.84,-164 2363.84,-164"/>
<polygon fill="black" stroke="black" points="2363.84,-160.5 2353.84,-164 2363.84,-167.5 2363.84,-160.5"/>
</g>
<!-- DropzoneDirective -->
<g id="node10" class="node">
<title>DropzoneDirective</title>
<polygon fill="#ffffb3" stroke="black" points="3043.78,-122 2920.22,-122 2920.22,-86 3043.78,-86 3043.78,-122"/>
<text text-anchor="middle" x="2982" y="-99.8" font-family="Times,serif" font-size="14.00">DropzoneDirective</text>
</g>
<!-- DropzoneDirective&#45;&gt;AppModule -->
<g id="edge10" class="edge">
<title>DropzoneDirective&#45;&gt;AppModule</title>
<path fill="none" stroke="black" d="M2982,-122.03C2982,-139.06 2982,-162 2982,-162 2982,-162 2363.66,-162 2363.66,-162"/>
<polygon fill="black" stroke="black" points="2363.66,-158.5 2353.66,-162 2363.66,-165.5 2363.66,-158.5"/>
</g>
<!-- EditBoatComponent -->
<g id="node11" class="node">
<title>EditBoatComponent</title>
<polygon fill="#ffffb3" stroke="black" points="2902.61,-122 2771.39,-122 2771.39,-86 2902.61,-86 2902.61,-122"/>
<text text-anchor="middle" x="2837" y="-99.8" font-family="Times,serif" font-size="14.00">EditBoatComponent</text>
</g>
<!-- EditBoatComponent&#45;&gt;AppModule -->
<g id="edge11" class="edge">
<title>EditBoatComponent&#45;&gt;AppModule</title>
<path fill="none" stroke="black" d="M2837,-122.01C2837,-138.05 2837,-159 2837,-159 2837,-159 2364.08,-159 2364.08,-159"/>
<polygon fill="black" stroke="black" points="2364.08,-155.5 2354.08,-159 2364.08,-162.5 2364.08,-155.5"/>
</g>
<!-- EditFeedbackComponent -->
<g id="node12" class="node">
<title>EditFeedbackComponent</title>
<polygon fill="#ffffb3" stroke="black" points="2753.31,-122 2594.69,-122 2594.69,-86 2753.31,-86 2753.31,-122"/>
<text text-anchor="middle" x="2674" y="-99.8" font-family="Times,serif" font-size="14.00">EditFeedbackComponent</text>
</g>
<!-- EditFeedbackComponent&#45;&gt;AppModule -->
<g id="edge12" class="edge">
<title>EditFeedbackComponent&#45;&gt;AppModule</title>
<path fill="none" stroke="black" d="M2674,-122.24C2674,-137.57 2674,-157 2674,-157 2674,-157 2363.88,-157 2363.88,-157"/>
<polygon fill="black" stroke="black" points="2363.88,-153.5 2353.88,-157 2363.88,-160.5 2363.88,-153.5"/>
</g>
<!-- ForgotPasswordComponent -->
<g id="node13" class="node">
<title>ForgotPasswordComponent</title>
<polygon fill="#ffffb3" stroke="black" points="2577.32,-122 2404.68,-122 2404.68,-86 2577.32,-86 2577.32,-122"/>
<text text-anchor="middle" x="2491" y="-99.8" font-family="Times,serif" font-size="14.00">ForgotPasswordComponent</text>
</g>
<!-- ForgotPasswordComponent&#45;&gt;AppModule -->
<g id="edge13" class="edge">
<title>ForgotPasswordComponent&#45;&gt;AppModule</title>
<path fill="none" stroke="black" d="M2491,-122.05C2491,-136.37 2491,-154 2491,-154 2491,-154 2363.97,-154 2363.97,-154"/>
<polygon fill="black" stroke="black" points="2363.97,-150.5 2353.97,-154 2363.97,-157.5 2363.97,-150.5"/>
</g>
<!-- ImageSliderComponent -->
<g id="node14" class="node">
<title>ImageSliderComponent</title>
<polygon fill="#ffffb3" stroke="black" points="2386.75,-122 2237.25,-122 2237.25,-86 2386.75,-86 2386.75,-122"/>
<text text-anchor="middle" x="2312" y="-99.8" font-family="Times,serif" font-size="14.00">ImageSliderComponent</text>
</g>
<!-- ImageSliderComponent&#45;&gt;AppModule -->
<g id="edge14" class="edge">
<title>ImageSliderComponent&#45;&gt;AppModule</title>
<path fill="none" stroke="black" d="M2312,-122.11C2312,-122.11 2312,-140.99 2312,-140.99"/>
<polygon fill="black" stroke="black" points="2308.5,-140.99 2312,-150.99 2315.5,-140.99 2308.5,-140.99"/>
</g>
<!-- MaterialElevationDirective -->
<g id="node15" class="node">
<title>MaterialElevationDirective</title>
<polygon fill="#ffffb3" stroke="black" points="2219.66,-122 2050.34,-122 2050.34,-86 2219.66,-86 2219.66,-122"/>
<text text-anchor="middle" x="2135" y="-99.8" font-family="Times,serif" font-size="14.00">MaterialElevationDirective</text>
</g>
<!-- MaterialElevationDirective&#45;&gt;AppModule -->
<g id="edge15" class="edge">
<title>MaterialElevationDirective&#45;&gt;AppModule</title>
<path fill="none" stroke="black" d="M2135,-122.05C2135,-136.37 2135,-154 2135,-154 2135,-154 2260.05,-154 2260.05,-154"/>
<polygon fill="black" stroke="black" points="2260.05,-157.5 2270.05,-154 2260.05,-150.5 2260.05,-157.5"/>
</g>
<!-- MultiplePicturesComponent -->
<g id="node16" class="node">
<title>MultiplePicturesComponent</title>
<polygon fill="#ffffb3" stroke="black" points="2032.15,-122 1857.85,-122 1857.85,-86 2032.15,-86 2032.15,-122"/>
<text text-anchor="middle" x="1945" y="-99.8" font-family="Times,serif" font-size="14.00">MultiplePicturesComponent</text>
</g>
<!-- MultiplePicturesComponent&#45;&gt;AppModule -->
<g id="edge16" class="edge">
<title>MultiplePicturesComponent&#45;&gt;AppModule</title>
<path fill="none" stroke="black" d="M1945,-122.24C1945,-137.57 1945,-157 1945,-157 1945,-157 2260.26,-157 2260.26,-157"/>
<polygon fill="black" stroke="black" points="2260.26,-160.5 2270.26,-157 2260.26,-153.5 2260.26,-160.5"/>
</g>
<!-- ShowUpload -->
<g id="node17" class="node">
<title>ShowUpload</title>
<polygon fill="#ffffb3" stroke="black" points="1839.6,-122 1750.4,-122 1750.4,-86 1839.6,-86 1839.6,-122"/>
<text text-anchor="middle" x="1795" y="-99.8" font-family="Times,serif" font-size="14.00">ShowUpload</text>
</g>
<!-- ShowUpload&#45;&gt;AppModule -->
<g id="edge17" class="edge">
<title>ShowUpload&#45;&gt;AppModule</title>
<path fill="none" stroke="black" d="M1795,-122.01C1795,-138.05 1795,-159 1795,-159 1795,-159 2260.13,-159 2260.13,-159"/>
<polygon fill="black" stroke="black" points="2260.13,-162.5 2270.13,-159 2260.13,-155.5 2260.13,-162.5"/>
</g>
<!-- SignInComponent -->
<g id="node18" class="node">
<title>SignInComponent</title>
<polygon fill="#ffffb3" stroke="black" points="1732.17,-122 1613.83,-122 1613.83,-86 1732.17,-86 1732.17,-122"/>
<text text-anchor="middle" x="1673" y="-99.8" font-family="Times,serif" font-size="14.00">SignInComponent</text>
</g>
<!-- SignInComponent&#45;&gt;AppModule -->
<g id="edge18" class="edge">
<title>SignInComponent&#45;&gt;AppModule</title>
<path fill="none" stroke="black" d="M1673,-122.03C1673,-139.06 1673,-162 1673,-162 1673,-162 2260.07,-162 2260.07,-162"/>
<polygon fill="black" stroke="black" points="2260.07,-165.5 2270.07,-162 2260.07,-158.5 2260.07,-165.5"/>
</g>
<!-- SignUpComponent -->
<g id="node19" class="node">
<title>SignUpComponent</title>
<polygon fill="#ffffb3" stroke="black" points="1596.11,-122 1471.89,-122 1471.89,-86 1596.11,-86 1596.11,-122"/>
<text text-anchor="middle" x="1534" y="-99.8" font-family="Times,serif" font-size="14.00">SignUpComponent</text>
</g>
<!-- SignUpComponent&#45;&gt;AppModule -->
<g id="edge19" class="edge">
<title>SignUpComponent&#45;&gt;AppModule</title>
<path fill="none" stroke="black" d="M1534,-122C1534,-139.68 1534,-164 1534,-164 1534,-164 2260.17,-164 2260.17,-164"/>
<polygon fill="black" stroke="black" points="2260.17,-167.5 2270.17,-164 2260.17,-160.5 2260.17,-167.5"/>
</g>
<!-- UploadTaskComponent -->
<g id="node20" class="node">
<title>UploadTaskComponent</title>
<polygon fill="#ffffb3" stroke="black" points="1453.76,-122 1304.24,-122 1304.24,-86 1453.76,-86 1453.76,-122"/>
<text text-anchor="middle" x="1379" y="-99.8" font-family="Times,serif" font-size="14.00">UploadTaskComponent</text>
</g>
<!-- UploadTaskComponent&#45;&gt;AppModule -->
<g id="edge20" class="edge">
<title>UploadTaskComponent&#45;&gt;AppModule</title>
<path fill="none" stroke="black" d="M1379,-122.22C1379,-140.83 1379,-167 1379,-167 1379,-167 2260.1,-167 2260.1,-167"/>
<polygon fill="black" stroke="black" points="2260.1,-170.5 2270.1,-167 2260.1,-163.5 2260.1,-170.5"/>
</g>
<!-- UploadTaskDocumentComponent -->
<g id="node21" class="node">
<title>UploadTaskDocumentComponent</title>
<polygon fill="#ffffb3" stroke="black" points="1286.07,-122 1077.93,-122 1077.93,-86 1286.07,-86 1286.07,-122"/>
<text text-anchor="middle" x="1182" y="-99.8" font-family="Times,serif" font-size="14.00">UploadTaskDocumentComponent</text>
</g>
<!-- UploadTaskDocumentComponent&#45;&gt;AppModule -->
<g id="edge21" class="edge">
<title>UploadTaskDocumentComponent&#45;&gt;AppModule</title>
<path fill="none" stroke="black" d="M1182,-122.11C1182,-141.34 1182,-169 1182,-169 1182,-169 2260.1,-169 2260.1,-169"/>
<polygon fill="black" stroke="black" points="2260.1,-172.5 2270.1,-169 2260.1,-165.5 2260.1,-172.5"/>
</g>
<!-- UploadTaskMultiplePicturesComponent -->
<g id="node22" class="node">
<title>UploadTaskMultiplePicturesComponent</title>
<polygon fill="#ffffb3" stroke="black" points="1059.58,-122 816.42,-122 816.42,-86 1059.58,-86 1059.58,-122"/>
<text text-anchor="middle" x="938" y="-99.8" font-family="Times,serif" font-size="14.00">UploadTaskMultiplePicturesComponent</text>
</g>
<!-- UploadTaskMultiplePicturesComponent&#45;&gt;AppModule -->
<g id="edge22" class="edge">
<title>UploadTaskMultiplePicturesComponent&#45;&gt;AppModule</title>
<path fill="none" stroke="black" d="M938,-122.22C938,-142.37 938,-172 938,-172 938,-172 2260.13,-172 2260.13,-172"/>
<polygon fill="black" stroke="black" points="2260.13,-175.5 2270.13,-172 2260.13,-168.5 2260.13,-175.5"/>
</g>
<!-- UserDetailsComponent -->
<g id="node23" class="node">
<title>UserDetailsComponent</title>
<polygon fill="#ffffb3" stroke="black" points="798.91,-122 651.09,-122 651.09,-86 798.91,-86 798.91,-122"/>
<text text-anchor="middle" x="725" y="-99.8" font-family="Times,serif" font-size="14.00">UserDetailsComponent</text>
</g>
<!-- UserDetailsComponent&#45;&gt;AppModule -->
<g id="edge23" class="edge">
<title>UserDetailsComponent&#45;&gt;AppModule</title>
<path fill="none" stroke="black" d="M725,-122.28C725,-143.32 725,-175 725,-175 725,-175 2259.96,-175 2259.96,-175"/>
<polygon fill="black" stroke="black" points="2259.96,-178.5 2269.96,-175 2259.96,-171.5 2259.96,-178.5"/>
</g>
<!-- VerifyEmailComponent -->
<g id="node24" class="node">
<title>VerifyEmailComponent</title>
<polygon fill="#ffffb3" stroke="black" points="633.8,-122 482.2,-122 482.2,-86 633.8,-86 633.8,-122"/>
<text text-anchor="middle" x="558" y="-99.8" font-family="Times,serif" font-size="14.00">VerifyEmailComponent</text>
</g>
<!-- VerifyEmailComponent&#45;&gt;AppModule -->
<g id="edge24" class="edge">
<title>VerifyEmailComponent&#45;&gt;AppModule</title>
<path fill="none" stroke="black" d="M558,-122.04C558,-143.66 558,-177 558,-177 558,-177 2259.94,-177 2259.94,-177"/>
<polygon fill="black" stroke="black" points="2259.94,-180.5 2269.94,-177 2259.94,-173.5 2259.94,-180.5"/>
</g>
<!-- AppComponent  -->
<g id="node27" class="node">
<title>AppComponent </title>
<polygon fill="#80b1d3" stroke="black" points="2366.44,-252 2257.56,-252 2257.56,-216 2366.44,-216 2366.44,-252"/>
<text text-anchor="middle" x="2312" y="-229.8" font-family="Times,serif" font-size="14.00">AppComponent </text>
</g>
<!-- AppModule&#45;&gt;AppComponent  -->
<g id="edge26" class="edge">
<title>AppModule&#45;&gt;AppComponent </title>
<path fill="none" stroke="black" stroke-dasharray="1,5" d="M2312,-187.11C2312,-187.11 2312,-205.99 2312,-205.99"/>
<polygon fill="black" stroke="black" points="2308.5,-205.99 2312,-215.99 2315.5,-205.99 2308.5,-205.99"/>
</g>
<!-- AppRoutingModule -->
<g id="node26" class="node">
<title>AppRoutingModule</title>
<polygon fill="#8dd3c7" stroke="black" points="458.27,-122 455.27,-126 434.27,-126 431.27,-122 329.73,-122 329.73,-86 458.27,-86 458.27,-122"/>
<text text-anchor="middle" x="394" y="-99.8" font-family="Times,serif" font-size="14.00">AppRoutingModule</text>
</g>
<!-- AppRoutingModule&#45;&gt;AppModule -->
<g id="edge25" class="edge">
<title>AppRoutingModule&#45;&gt;AppModule</title>
<path fill="none" stroke="black" d="M394,-122.01C394,-144.49 394,-180 394,-180 394,-180 2260.16,-180 2260.16,-180"/>
<polygon fill="black" stroke="black" points="2260.16,-183.5 2270.16,-180 2260.16,-176.5 2260.16,-183.5"/>
</g>
<!-- AuthService -->
<g id="node28" class="node">
<title>AuthService</title>
<ellipse fill="#fdb462" stroke="black" cx="247" cy="-104" rx="59.11" ry="18"/>
<text text-anchor="middle" x="247" y="-99.8" font-family="Times,serif" font-size="14.00">AuthService</text>
</g>
<!-- AuthService&#45;&gt;AppModule -->
<g id="edge27" class="edge">
<title>AuthService&#45;&gt;AppModule</title>
<path fill="none" stroke="black" d="M247,-122.09C247,-145.13 247,-182 247,-182 247,-182 2260.28,-182 2260.28,-182"/>
<polygon fill="black" stroke="black" points="2260.28,-185.5 2270.28,-182 2260.28,-178.5 2260.28,-185.5"/>
</g>
<!-- FirebaseService -->
<g id="node29" class="node">
<title>FirebaseService</title>
<ellipse fill="#fdb462" stroke="black" cx="97" cy="-104" rx="72.91" ry="18"/>
<text text-anchor="middle" x="97" y="-99.8" font-family="Times,serif" font-size="14.00">FirebaseService</text>
</g>
<!-- FirebaseService&#45;&gt;AppModule -->
<g id="edge28" class="edge">
<title>FirebaseService&#45;&gt;AppModule</title>
<path fill="none" stroke="black" d="M97,-122.38C97,-146.28 97,-185 97,-185 97,-185 2260.22,-185 2260.22,-185"/>
<polygon fill="black" stroke="black" points="2260.22,-188.5 2270.22,-185 2260.22,-181.5 2260.22,-188.5"/>
</g>
</g>
</svg>
