<?xml version="1.0" encoding="UTF-8" standalone="no"?>
<!DOCTYPE svg PUBLIC "-//W3C//DTD SVG 1.1//EN"
 "http://www.w3.org/Graphics/SVG/1.1/DTD/svg11.dtd">
<!-- Generated by graphviz version 2.47.0 (20210316.0004)
 -->
<!-- Title: dependencies Pages: 1 -->
<svg width="3628pt" height="284pt"
 viewBox="0.00 0.00 3628.00 284.00" xmlns="http://www.w3.org/2000/svg" xmlns:xlink="http://www.w3.org/1999/xlink">
<g id="graph0" class="graph" transform="scale(1 1) rotate(0) translate(4 280)">
<title>dependencies</title>
<polygon fill="white" stroke="transparent" points="-4,4 -4,-280 3624,-280 3624,4 -4,4"/>
<text text-anchor="start" x="1789.01" y="-42.4" font-family="sans-serif" font-weight="bold" font-size="14.00">Legend</text>
<polygon fill="#ffffb3" stroke="transparent" points="1576,-10 1576,-30 1596,-30 1596,-10 1576,-10"/>
<text text-anchor="start" x="1599.63" y="-15.4" font-family="sans-serif" font-size="14.00"> &#160;Declarations</text>
<polygon fill="#8dd3c7" stroke="transparent" points="1689,-10 1689,-30 1709,-30 1709,-10 1689,-10"/>
<text text-anchor="start" x="1712.73" y="-15.4" font-family="sans-serif" font-size="14.00"> &#160;Module</text>
<polygon fill="#80b1d3" stroke="transparent" points="1775,-10 1775,-30 1795,-30 1795,-10 1775,-10"/>
<text text-anchor="start" x="1798.78" y="-15.4" font-family="sans-serif" font-size="14.00"> &#160;Bootstrap</text>
<polygon fill="#fdb462" stroke="transparent" points="1872,-10 1872,-30 1892,-30 1892,-10 1872,-10"/>
<text text-anchor="start" x="1895.67" y="-15.4" font-family="sans-serif" font-size="14.00"> &#160;Providers</text>
<polygon fill="#fb8072" stroke="transparent" points="1968,-10 1968,-30 1988,-30 1988,-10 1968,-10"/>
<text text-anchor="start" x="1991.73" y="-15.4" font-family="sans-serif" font-size="14.00"> &#160;Exports</text>
<g id="clust1" class="cluster">
<title>cluster_AppModule</title>
<polygon fill="none" stroke="black" stroke-dasharray="1,5" points="8,-70 8,-268 3612,-268 3612,-70 8,-70"/>
</g>
<g id="clust24" class="cluster">
<title>cluster_AppModule_bootstrap</title>
<polygon fill="none" stroke="black" points="1797,-208 1797,-260 1921,-260 1921,-208 1797,-208"/>
</g>
<g id="clust25" class="cluster">
<title>cluster_AppModule_providers</title>
<polygon fill="none" stroke="black" points="3306,-78 3306,-130 3604,-130 3604,-78 3306,-78"/>
</g>
<g id="clust22" class="cluster">
<title>cluster_AppModule_imports</title>
<polygon fill="none" stroke="black" points="3154,-78 3154,-130 3298,-130 3298,-78 3154,-78"/>
</g>
<g id="clust2" class="cluster">
<title>cluster_AppModule_declarations</title>
<polygon fill="none" stroke="black" points="16,-78 16,-130 3146,-130 3146,-78 16,-78"/>
</g>
<!-- AboutUsComponent -->
<g id="node1" class="node">
<title>AboutUsComponent</title>
<polygon fill="#ffffb3" stroke="black" points="3137.88,-122 3006.12,-122 3006.12,-86 3137.88,-86 3137.88,-122"/>
<text text-anchor="middle" x="3072" y="-99.8" font-family="Times,serif" font-size="14.00">AboutUsComponent</text>
</g>
<!-- AppModule -->
<g id="node20" class="node">
<title>AppModule</title>
<polygon fill="#8dd3c7" stroke="black" points="1900.66,-187 1897.66,-191 1876.66,-191 1873.66,-187 1817.34,-187 1817.34,-151 1900.66,-151 1900.66,-187"/>
<text text-anchor="middle" x="1859" y="-164.8" font-family="Times,serif" font-size="14.00">AppModule</text>
</g>
<!-- AboutUsComponent&#45;&gt;AppModule -->
<g id="edge1" class="edge">
<title>AboutUsComponent&#45;&gt;AppModule</title>
<path fill="none" stroke="black" d="M3072,-122.03C3072,-142.77 3072,-174 3072,-174 3072,-174 1910.75,-174 1910.75,-174"/>
<polygon fill="black" stroke="black" points="1910.75,-170.5 1900.75,-174 1910.75,-177.5 1910.75,-170.5"/>
</g>
<!-- AppComponent -->
<g id="node2" class="node">
<title>AppComponent</title>
<polygon fill="#ffffb3" stroke="black" points="2987.94,-122 2882.06,-122 2882.06,-86 2987.94,-86 2987.94,-122"/>
<text text-anchor="middle" x="2935" y="-99.8" font-family="Times,serif" font-size="14.00">AppComponent</text>
</g>
<!-- AppComponent&#45;&gt;AppModule -->
<g id="edge2" class="edge">
<title>AppComponent&#45;&gt;AppModule</title>
<path fill="none" stroke="black" d="M2935,-122.31C2935,-142.15 2935,-171 2935,-171 2935,-171 1910.85,-171 1910.85,-171"/>
<polygon fill="black" stroke="black" points="1910.85,-167.5 1900.85,-171 1910.85,-174.5 1910.85,-167.5"/>
</g>
<!-- BewertungComponent -->
<g id="node3" class="node">
<title>BewertungComponent</title>
<polygon fill="#ffffb3" stroke="black" points="2864.26,-122 2721.74,-122 2721.74,-86 2864.26,-86 2864.26,-122"/>
<text text-anchor="middle" x="2793" y="-99.8" font-family="Times,serif" font-size="14.00">BewertungComponent</text>
</g>
<!-- BewertungComponent&#45;&gt;AppModule -->
<g id="edge3" class="edge">
<title>BewertungComponent&#45;&gt;AppModule</title>
<path fill="none" stroke="black" d="M2793,-122.17C2793,-141.09 2793,-168 2793,-168 2793,-168 1910.95,-168 1910.95,-168"/>
<polygon fill="black" stroke="black" points="1910.95,-164.5 1900.95,-168 1910.95,-171.5 1910.95,-164.5"/>
</g>
<!-- BoatDetailsComponent -->
<g id="node4" class="node">
<title>BoatDetailsComponent</title>
<polygon fill="#ffffb3" stroke="black" points="2703.93,-122 2556.07,-122 2556.07,-86 2703.93,-86 2703.93,-122"/>
<text text-anchor="middle" x="2630" y="-99.8" font-family="Times,serif" font-size="14.00">BoatDetailsComponent</text>
</g>
<!-- BoatDetailsComponent&#45;&gt;AppModule -->
<g id="edge4" class="edge">
<title>BoatDetailsComponent&#45;&gt;AppModule</title>
<path fill="none" stroke="black" d="M2630,-122.3C2630,-140.27 2630,-165 2630,-165 2630,-165 1910.73,-165 1910.73,-165"/>
<polygon fill="black" stroke="black" points="1910.73,-161.5 1900.73,-165 1910.73,-168.5 1910.73,-161.5"/>
</g>
<!-- ConfirmDialogComponent -->
<g id="node5" class="node">
<title>ConfirmDialogComponent</title>
<polygon fill="#ffffb3" stroke="black" points="2538.37,-122 2371.63,-122 2371.63,-86 2538.37,-86 2538.37,-122"/>
<text text-anchor="middle" x="2455" y="-99.8" font-family="Times,serif" font-size="14.00">ConfirmDialogComponent</text>
</g>
<!-- ConfirmDialogComponent&#45;&gt;AppModule -->
<g id="edge5" class="edge">
<title>ConfirmDialogComponent&#45;&gt;AppModule</title>
<path fill="none" stroke="black" d="M2455,-122.04C2455,-138.73 2455,-161 2455,-161 2455,-161 1910.91,-161 1910.91,-161"/>
<polygon fill="black" stroke="black" points="1910.91,-157.5 1900.91,-161 1910.91,-164.5 1910.91,-157.5"/>
</g>
<!-- ContactUsComponent -->
<g id="node6" class="node">
<title>ContactUsComponent</title>
<polygon fill="#ffffb3" stroke="black" points="2353.43,-122 2212.57,-122 2212.57,-86 2353.43,-86 2353.43,-122"/>
<text text-anchor="middle" x="2283" y="-99.8" font-family="Times,serif" font-size="14.00">ContactUsComponent</text>
</g>
<!-- ContactUsComponent&#45;&gt;AppModule -->
<g id="edge6" class="edge">
<title>ContactUsComponent&#45;&gt;AppModule</title>
<path fill="none" stroke="black" d="M2283,-122.28C2283,-137.95 2283,-158 2283,-158 2283,-158 1910.82,-158 1910.82,-158"/>
<polygon fill="black" stroke="black" points="1910.82,-154.5 1900.82,-158 1910.82,-161.5 1910.82,-154.5"/>
</g>
<!-- CreateBoatComponent -->
<g id="node7" class="node">
<title>CreateBoatComponent</title>
<polygon fill="#ffffb3" stroke="black" points="2195.31,-122 2050.69,-122 2050.69,-86 2195.31,-86 2195.31,-122"/>
<text text-anchor="middle" x="2123" y="-99.8" font-family="Times,serif" font-size="14.00">CreateBoatComponent</text>
</g>
<!-- CreateBoatComponent&#45;&gt;AppModule -->
<g id="edge7" class="edge">
<title>CreateBoatComponent&#45;&gt;AppModule</title>
<path fill="none" stroke="black" d="M2123,-122.12C2123,-136.78 2123,-155 2123,-155 2123,-155 1910.83,-155 1910.83,-155"/>
<polygon fill="black" stroke="black" points="1910.83,-151.5 1900.83,-155 1910.83,-158.5 1910.83,-151.5"/>
</g>
<!-- CreateFeedbackComponent -->
<g id="node8" class="node">
<title>CreateFeedbackComponent</title>
<polygon fill="#ffffb3" stroke="black" points="2032.51,-122 1861.49,-122 1861.49,-86 2032.51,-86 2032.51,-122"/>
<text text-anchor="middle" x="1947" y="-99.8" font-family="Times,serif" font-size="14.00">CreateFeedbackComponent</text>
</g>
<!-- CreateFeedbackComponent&#45;&gt;AppModule -->
<g id="edge8" class="edge">
<title>CreateFeedbackComponent&#45;&gt;AppModule</title>
<path fill="none" stroke="black" d="M1881.04,-122.11C1881.04,-122.11 1881.04,-140.99 1881.04,-140.99"/>
<polygon fill="black" stroke="black" points="1877.54,-140.99 1881.04,-150.99 1884.54,-140.99 1877.54,-140.99"/>
</g>
<!-- DashboardComponent -->
<g id="node9" class="node">
<title>DashboardComponent</title>
<polygon fill="#ffffb3" stroke="black" points="1842.97,-122 1701.03,-122 1701.03,-86 1842.97,-86 1842.97,-122"/>
<text text-anchor="middle" x="1772" y="-99.8" font-family="Times,serif" font-size="14.00">DashboardComponent</text>
</g>
<!-- DashboardComponent&#45;&gt;AppModule -->
<g id="edge9" class="edge">
<title>DashboardComponent&#45;&gt;AppModule</title>
<path fill="none" stroke="black" d="M1830.08,-122.11C1830.08,-122.11 1830.08,-140.99 1830.08,-140.99"/>
<polygon fill="black" stroke="black" points="1826.58,-140.99 1830.08,-150.99 1833.58,-140.99 1826.58,-140.99"/>
</g>
<!-- EditBoatComponent -->
<g id="node10" class="node">
<title>EditBoatComponent</title>
<polygon fill="#ffffb3" stroke="black" points="1682.61,-122 1551.39,-122 1551.39,-86 1682.61,-86 1682.61,-122"/>
<text text-anchor="middle" x="1617" y="-99.8" font-family="Times,serif" font-size="14.00">EditBoatComponent</text>
</g>
<!-- EditBoatComponent&#45;&gt;AppModule -->
<g id="edge10" class="edge">
<title>EditBoatComponent&#45;&gt;AppModule</title>
<path fill="none" stroke="black" d="M1617,-122.12C1617,-136.78 1617,-155 1617,-155 1617,-155 1807.12,-155 1807.12,-155"/>
<polygon fill="black" stroke="black" points="1807.12,-158.5 1817.12,-155 1807.12,-151.5 1807.12,-158.5"/>
</g>
<!-- EditFeedbackComponent -->
<g id="node11" class="node">
<title>EditFeedbackComponent</title>
<polygon fill="#ffffb3" stroke="black" points="1533.31,-122 1374.69,-122 1374.69,-86 1533.31,-86 1533.31,-122"/>
<text text-anchor="middle" x="1454" y="-99.8" font-family="Times,serif" font-size="14.00">EditFeedbackComponent</text>
</g>
<!-- EditFeedbackComponent&#45;&gt;AppModule -->
<g id="edge11" class="edge">
<title>EditFeedbackComponent&#45;&gt;AppModule</title>
<path fill="none" stroke="black" d="M1454,-122.28C1454,-137.95 1454,-158 1454,-158 1454,-158 1807.18,-158 1807.18,-158"/>
<polygon fill="black" stroke="black" points="1807.18,-161.5 1817.18,-158 1807.18,-154.5 1807.18,-161.5"/>
</g>
<!-- ForgotPasswordComponent -->
<g id="node12" class="node">
<title>ForgotPasswordComponent</title>
<polygon fill="#ffffb3" stroke="black" points="1357.32,-122 1184.68,-122 1184.68,-86 1357.32,-86 1357.32,-122"/>
<text text-anchor="middle" x="1271" y="-99.8" font-family="Times,serif" font-size="14.00">ForgotPasswordComponent</text>
</g>
<!-- ForgotPasswordComponent&#45;&gt;AppModule -->
<g id="edge12" class="edge">
<title>ForgotPasswordComponent&#45;&gt;AppModule</title>
<path fill="none" stroke="black" d="M1271,-122.04C1271,-138.73 1271,-161 1271,-161 1271,-161 1807.18,-161 1807.18,-161"/>
<polygon fill="black" stroke="black" points="1807.18,-164.5 1817.18,-161 1807.18,-157.5 1807.18,-164.5"/>
</g>
<!-- ImageSliderComponent -->
<g id="node13" class="node">
<title>ImageSliderComponent</title>
<polygon fill="#ffffb3" stroke="black" points="1166.75,-122 1017.25,-122 1017.25,-86 1166.75,-86 1166.75,-122"/>
<text text-anchor="middle" x="1092" y="-99.8" font-family="Times,serif" font-size="14.00">ImageSliderComponent</text>
</g>
<!-- ImageSliderComponent&#45;&gt;AppModule -->
<g id="edge13" class="edge">
<title>ImageSliderComponent&#45;&gt;AppModule</title>
<path fill="none" stroke="black" d="M1092,-122.3C1092,-140.27 1092,-165 1092,-165 1092,-165 1807.22,-165 1807.22,-165"/>
<polygon fill="black" stroke="black" points="1807.22,-168.5 1817.22,-165 1807.22,-161.5 1807.22,-168.5"/>
</g>
<!-- MaterialElevationDirective -->
<g id="node14" class="node">
<title>MaterialElevationDirective</title>
<polygon fill="#ffffb3" stroke="black" points="999.66,-122 830.34,-122 830.34,-86 999.66,-86 999.66,-122"/>
<text text-anchor="middle" x="915" y="-99.8" font-family="Times,serif" font-size="14.00">MaterialElevationDirective</text>
</g>
<!-- MaterialElevationDirective&#45;&gt;AppModule -->
<g id="edge14" class="edge">
<title>MaterialElevationDirective&#45;&gt;AppModule</title>
<path fill="none" stroke="black" d="M915,-122.17C915,-141.09 915,-168 915,-168 915,-168 1807.22,-168 1807.22,-168"/>
<polygon fill="black" stroke="black" points="1807.22,-171.5 1817.22,-168 1807.22,-164.5 1807.22,-171.5"/>
</g>
<!-- MultiplePicturesComponent -->
<g id="node15" class="node">
<title>MultiplePicturesComponent</title>
<polygon fill="#ffffb3" stroke="black" points="812.15,-122 637.85,-122 637.85,-86 812.15,-86 812.15,-122"/>
<text text-anchor="middle" x="725" y="-99.8" font-family="Times,serif" font-size="14.00">MultiplePicturesComponent</text>
</g>
<!-- MultiplePicturesComponent&#45;&gt;AppModule -->
<g id="edge15" class="edge">
<title>MultiplePicturesComponent&#45;&gt;AppModule</title>
<path fill="none" stroke="black" d="M725,-122.31C725,-142.15 725,-171 725,-171 725,-171 1807.3,-171 1807.3,-171"/>
<polygon fill="black" stroke="black" points="1807.3,-174.5 1817.3,-171 1807.3,-167.5 1807.3,-174.5"/>
</g>
<!-- SignInComponent -->
<g id="node16" class="node">
<title>SignInComponent</title>
<polygon fill="#ffffb3" stroke="black" points="619.17,-122 500.83,-122 500.83,-86 619.17,-86 619.17,-122"/>
<text text-anchor="middle" x="560" y="-99.8" font-family="Times,serif" font-size="14.00">SignInComponent</text>
</g>
<!-- SignInComponent&#45;&gt;AppModule -->
<g id="edge16" class="edge">
<title>SignInComponent&#45;&gt;AppModule</title>
<path fill="none" stroke="black" d="M560,-122.03C560,-142.77 560,-174 560,-174 560,-174 1807.25,-174 1807.25,-174"/>
<polygon fill="black" stroke="black" points="1807.25,-177.5 1817.25,-174 1807.25,-170.5 1807.25,-177.5"/>
</g>
<!-- SignUpComponent -->
<g id="node17" class="node">
<title>SignUpComponent</title>
<polygon fill="#ffffb3" stroke="black" points="483.11,-122 358.89,-122 358.89,-86 483.11,-86 483.11,-122"/>
<text text-anchor="middle" x="421" y="-99.8" font-family="Times,serif" font-size="14.00">SignUpComponent</text>
</g>
<!-- SignUpComponent&#45;&gt;AppModule -->
<g id="edge17" class="edge">
<title>SignUpComponent&#45;&gt;AppModule</title>
<path fill="none" stroke="black" d="M421,-122.29C421,-144.21 421,-178 421,-178 421,-178 1807.13,-178 1807.13,-178"/>
<polygon fill="black" stroke="black" points="1807.13,-181.5 1817.13,-178 1807.13,-174.5 1807.13,-181.5"/>
</g>
<!-- UserDetailsComponent -->
<g id="node18" class="node">
<title>UserDetailsComponent</title>
<polygon fill="#ffffb3" stroke="black" points="340.91,-122 193.09,-122 193.09,-86 340.91,-86 340.91,-122"/>
<text text-anchor="middle" x="267" y="-99.8" font-family="Times,serif" font-size="14.00">UserDetailsComponent</text>
</g>
<!-- UserDetailsComponent&#45;&gt;AppModule -->
<g id="edge18" class="edge">
<title>UserDetailsComponent&#45;&gt;AppModule</title>
<path fill="none" stroke="black" d="M267,-122.25C267,-145.02 267,-181 267,-181 267,-181 1807.24,-181 1807.24,-181"/>
<polygon fill="black" stroke="black" points="1807.24,-184.5 1817.24,-181 1807.24,-177.5 1807.24,-184.5"/>
</g>
<!-- VerifyEmailComponent -->
<g id="node19" class="node">
<title>VerifyEmailComponent</title>
<polygon fill="#ffffb3" stroke="black" points="175.8,-122 24.2,-122 24.2,-86 175.8,-86 175.8,-122"/>
<text text-anchor="middle" x="100" y="-99.8" font-family="Times,serif" font-size="14.00">VerifyEmailComponent</text>
</g>
<!-- VerifyEmailComponent&#45;&gt;AppModule -->
<g id="edge19" class="edge">
<title>VerifyEmailComponent&#45;&gt;AppModule</title>
<path fill="none" stroke="black" d="M100,-122.15C100,-145.76 100,-184 100,-184 100,-184 1807.25,-184 1807.25,-184"/>
<polygon fill="black" stroke="black" points="1807.25,-187.5 1817.25,-184 1807.25,-180.5 1807.25,-187.5"/>
</g>
<!-- AppComponent  -->
<g id="node22" class="node">
<title>AppComponent </title>
<polygon fill="#80b1d3" stroke="black" points="1913.44,-252 1804.56,-252 1804.56,-216 1913.44,-216 1913.44,-252"/>
<text text-anchor="middle" x="1859" y="-229.8" font-family="Times,serif" font-size="14.00">AppComponent </text>
</g>
<!-- AppModule&#45;&gt;AppComponent  -->
<g id="edge21" class="edge">
<title>AppModule&#45;&gt;AppComponent </title>
<path fill="none" stroke="black" stroke-dasharray="1,5" d="M1859,-187.11C1859,-187.11 1859,-205.99 1859,-205.99"/>
<polygon fill="black" stroke="black" points="1855.5,-205.99 1859,-215.99 1862.5,-205.99 1855.5,-205.99"/>
</g>
<!-- AppRoutingModule -->
<g id="node21" class="node">
<title>AppRoutingModule</title>
<polygon fill="#8dd3c7" stroke="black" points="3290.27,-122 3287.27,-126 3266.27,-126 3263.27,-122 3161.73,-122 3161.73,-86 3290.27,-86 3290.27,-122"/>
<text text-anchor="middle" x="3226" y="-99.8" font-family="Times,serif" font-size="14.00">AppRoutingModule</text>
</g>
<!-- AppRoutingModule&#45;&gt;AppModule -->
<g id="edge20" class="edge">
<title>AppRoutingModule&#45;&gt;AppModule</title>
<path fill="none" stroke="black" d="M3226,-122.29C3226,-144.21 3226,-178 3226,-178 3226,-178 1910.66,-178 1910.66,-178"/>
<polygon fill="black" stroke="black" points="1910.66,-174.5 1900.66,-178 1910.66,-181.5 1910.66,-174.5"/>
</g>
<!-- AuthService -->
<g id="node23" class="node">
<title>AuthService</title>
<ellipse fill="#fdb462" stroke="black" cx="3537" cy="-104" rx="59.11" ry="18"/>
<text text-anchor="middle" x="3537" y="-99.8" font-family="Times,serif" font-size="14.00">AuthService</text>
</g>
<!-- AuthService&#45;&gt;AppModule -->
<g id="edge22" class="edge">
<title>AuthService&#45;&gt;AppModule</title>
<path fill="none" stroke="black" d="M3537,-122.15C3537,-145.76 3537,-184 3537,-184 3537,-184 1910.9,-184 1910.9,-184"/>
<polygon fill="black" stroke="black" points="1910.9,-180.5 1900.9,-184 1910.9,-187.5 1910.9,-180.5"/>
</g>
<!-- FirebaseService -->
<g id="node24" class="node">
<title>FirebaseService</title>
<ellipse fill="#fdb462" stroke="black" cx="3387" cy="-104" rx="72.91" ry="18"/>
<text text-anchor="middle" x="3387" y="-99.8" font-family="Times,serif" font-size="14.00">FirebaseService</text>
</g>
<!-- FirebaseService&#45;&gt;AppModule -->
<g id="edge23" class="edge">
<title>FirebaseService&#45;&gt;AppModule</title>
<path fill="none" stroke="black" d="M3387,-122.25C3387,-145.02 3387,-181 3387,-181 3387,-181 1910.66,-181 1910.66,-181"/>
<polygon fill="black" stroke="black" points="1910.66,-177.5 1900.66,-181 1910.66,-184.5 1910.66,-177.5"/>
</g>
</g>
</svg>
